<?xml version="1.0" encoding="utf-8"?>
<!-- Generator: Adobe Illustrator 28.2.0, SVG Export Plug-In . SVG Version: 6.00 Build 0)  -->
<svg version="1.1" id="Camada_1" xmlns="http://www.w3.org/2000/svg" xmlns:xlink="http://www.w3.org/1999/xlink" x="0px" y="0px"
	 viewBox="0 0 809.2 202.4" style="enable-background:new 0 0 809.2 202.4;" xml:space="preserve">
<style type="text/css">
	.st0{fill:#FFFFFF;}
</style>
<g id="Layer_2">
	<g id="Layer_1-2">
		<path class="st0" d="M245.6,29.1c0-7.9,6.4-14.3,14.3-14.4h66.5c37.6,0,58.1,25.4,58.1,55.7c0,30.1-20.7,55.2-58.1,55.2h-44.1
			v47.6c0,7.9-6.4,14.4-14.4,14.4l0,0h-22.5V29.1z M321.6,46.4h-32c-4,0-7.2,3.2-7.2,7.2v40.5h39.7c13.7,0,25.3-11.1,24.8-24.7
			S335.8,46.4,321.6,46.4L321.6,46.4z"/>
		<path class="st0" d="M421.7,14.7h22.5v158.6c0,7.9-6.4,14.4-14.4,14.4l0,0h-22.5V29.1C407.4,21.2,413.8,14.7,421.7,14.7z"/>
		<path class="st0" d="M531.8,118.4l-10.1,12.1c-2.2,2.6-3.4,5.9-3.4,9.2v33.6c0,7.9-6.4,14.3-14.3,14.4c0,0,0,0,0,0h-22.5V29.1
			c0-7.9,6.4-14.4,14.4-14.4l0,0h22.5V92l56.9-71.8c2.7-3.4,6.9-5.4,11.2-5.4h38.4L560,91.4c-2.2,2.6-2.3,6.4-0.1,9.1l69.7,87.2
			h-45.3L531.8,118.4z"/>
		<path class="st0" d="M748.1,157.9H691c-6,0-11.4,3.8-13.5,9.4l-5.8,15.7c-1,2.8-3.7,4.7-6.7,4.7h-35.4l63.3-163.8
			c2.1-5.5,7.5-9.2,13.4-9.2h26.5c5.9,0,11.3,3.7,13.4,9.2l63.1,163.7h-35.2c-3,0-5.7-1.9-6.7-4.7l-5.7-15.7
			C759.6,161.6,754.2,157.9,748.1,157.9z M690.8,126h57.3L724,59.1c-0.9-2.5-3.6-3.8-6.1-2.9c-1.3,0.5-2.4,1.5-2.9,2.9L690.8,126z"
			/>
		<path class="st0" d="M204.1,93c4.7,51.7-30.2,98.8-81,109.4c-1.3,0.3-2.6-0.5-2.8-1.8c0-0.2-0.1-0.3-0.1-0.5l0,0
			c0-25,8.2-49.2,22.5-69.7c15.5-22.4,9.9-53.1-12.5-68.5s-53.1-9.9-68.5,12.5c-11.7,16.9-11.7,39.2,0,56.1
			C75.9,150.9,84.2,175,84.2,200l0,0c0,1.4-1.1,2.5-2.5,2.5c-0.2,0-0.4,0-0.5-0.1c-55.3-11.6-90.6-65.9-79-121.1S68-9.4,123.3,2.2
			C167.2,11.5,200,48.3,204.1,93z"/>
	</g>
</g>
</svg>
