<svg xmlns="http://www.w3.org/2000/svg" viewBox="0 0 809.25 202.4"><defs><style>.cls-1{fill:#6b63ff;}</style></defs><g id="Layer_2" data-name="Layer 2"><g id="Layer_1-2" data-name="Layer 1"><path class="cls-1" d="M245.58,29.08a14.36,14.36,0,0,1,14.35-14.35h66.54c37.6,0,58.08,25.41,58.08,55.75,0,30.07-20.74,55.22-58.08,55.22H282.4v47.61a14.35,14.35,0,0,1-14.35,14.35H245.58Zm76,17.28h-32a7.18,7.18,0,0,0-7.17,7.18V94.07h39.71c13.68,0,25.27-11.07,24.83-24.74S335.76,46.36,321.55,46.36Z"/><path class="cls-1" d="M421.72,14.73h22.47V173.31a14.35,14.35,0,0,1-14.35,14.35H407.37V29.08A14.36,14.36,0,0,1,421.72,14.73Z"/><path class="cls-1" d="M531.83,118.44l-10.12,12.07a14.36,14.36,0,0,0-3.36,9.23v33.57A14.34,14.34,0,0,1,504,187.66H481.54V29.08a14.35,14.35,0,0,1,14.35-14.35h22.46V92l56.88-71.82a14.35,14.35,0,0,1,11.25-5.45h38.43L560,91.38a7.18,7.18,0,0,0-.13,9.12l69.69,87.16H584.21Z"/><path class="cls-1" d="M748.14,157.85H691a14.35,14.35,0,0,0-13.48,9.43L671.74,183a7.16,7.16,0,0,1-6.74,4.71H629.58L692.92,23.91a14.36,14.36,0,0,1,13.38-9.18h26.47a14.37,14.37,0,0,1,13.39,9.19l63.09,163.74H774.08a7.17,7.17,0,0,1-6.74-4.71l-5.72-15.67A14.36,14.36,0,0,0,748.14,157.85ZM690.76,126h57.3L724,59.09a4.78,4.78,0,0,0-9,0Z"/><path class="cls-1" d="M204.08,93a102.3,102.3,0,0,1-81,109.36,2.39,2.39,0,0,1-2.89-2.33h0c0-25,8.2-49.16,22.49-69.69a49.26,49.26,0,1,0-81,0c14.25,20.53,22.5,44.62,22.5,69.62h0a2.47,2.47,0,0,1-3,2.41A102.26,102.26,0,1,1,204.08,93Z"/></g></g></svg>